<?xml version="1.0" encoding="UTF-8"?>
<!DOCTYPE svg PUBLIC "-//W3C//DTD SVG 1.1//EN" "http://www.w3.org/Graphics/SVG/1.1/DTD/svg11.dtd">
<!-- Creator: CorelDRAW -->
<svg xmlns="http://www.w3.org/2000/svg" xml:space="preserve" width="236px" height="60px" style="shape-rendering:geometricPrecision; text-rendering:geometricPrecision; image-rendering:optimizeQuality; fill-rule:evenodd; clip-rule:evenodd"
viewBox="0 0 235.913 59.8201"
 xmlns:xlink="http://www.w3.org/1999/xlink">
 <defs>
  <style type="text/css">
   <![CDATA[
    .fil1 {fill:#3E3F4C;fill-rule:nonzero}
    .fil0 {fill:#E42A25;fill-rule:nonzero}
   ]]>
  </style>
 </defs>
 <g id="Layer_x0020_1">
  <metadata id="CorelCorpID_0Corel-Layer"/>
  <path class="fil0" d="M61.8681 56.7749c6.83203,-0.375982 12.9852,-3.30025 17.5238,-7.83889 4.53864,-4.53896 7.46323,-10.692 7.83889,-17.524l-28.4057 0 0 -3.00388 28.4057 0c-0.375664,-6.83203 -3.30025,-12.9852 -7.83889,-17.524 -4.53864,-4.53864 -10.6918,-7.46275 -17.5238,-7.83889l0 22.3871 -3.00372 0 0 -22.3871c-6.83235,0.376141 -12.9852,3.30025 -17.5242,7.83889 -4.8687,4.86917 -7.88036,11.5958 -7.88036,19.0259 0,7.43001 3.01167,14.1572 7.88036,19.026 4.53896,4.53864 10.6918,7.46291 17.5242,7.83889l0 -22.3921 3.00372 0 0 22.3921zm19.648 -5.71521c-5.41265,5.41249 -12.8911,8.76041 -21.1499,8.76041 -8.25952,0 -15.7374,-3.34792 -21.1497,-8.76041 -5.41249,-5.41249 -8.76057,-12.8903 -8.76057,-21.1497 0,-8.25921 3.34808,-15.7371 8.76057,-21.1495 5.41233,-5.41249 12.8902,-8.76041 21.1497,-8.76041 8.25873,0 15.7372,3.34792 21.1499,8.76041 5.41201,5.41249 8.75993,12.8903 8.75993,21.1495 0,8.25937 -3.34792,15.7372 -8.75993,21.1497z"/>
  <path class="fil1" d="M10.4088 37.4938l0 2.65889 -2.20536 0 0 -2.65889 -0.381226 0c-2.2632,0 -4.13072,-0.76706 -5.60731,-2.31135 -1.4766,-1.53952 -2.21489,-3.43596 -2.21489,-5.68947 0,-2.14736 0.738298,-3.95703 2.2052,-5.4287 1.47183,-1.47167 3.3538,-2.20536 5.64132,-2.20536l0.356913 0 0 -2.54304 2.20536 0 0 2.54304 0.337685 0c2.31628,0 4.20811,0.723678 5.66055,2.17151 1.45721,1.44291 2.18597,3.26704 2.18597,5.46254 0,2.22475 -0.738298,4.11626 -2.21505,5.67008 -1.47183,1.55383 -3.33902,2.33074 -5.60223,2.33074l-0.366924 0zm0 -13.6418l0 11.5523 0.366924 0c1.61167,0 2.89996,-0.535687 3.87487,-1.6069 0.96983,-1.07106 1.45228,-2.49473 1.45228,-4.27548 0,-1.69843 -0.482452,-3.06427 -1.45228,-4.1064 -0.974915,-1.04245 -2.27305,-1.56352 -3.90411,-1.56352l-0.337685 0zm-2.20536 11.5523l0 -11.5523 -0.356913 0c-1.60229,0 -2.89551,0.525993 -3.87996,1.58275 -0.98445,1.05691 -1.4766,2.41766 -1.4766,4.08717 0,1.79044 0.487378,3.21889 1.45753,4.28534 0.969671,1.06136 2.2632,1.59705 3.87471,1.59705l0.381226 0z"/>
  <path class="fil1" d="M34.8791 40.1527l-2.62981 0 -2.14736 -5.68454 -8.59928 0 -2.02198 5.68454 -2.63934 0 7.77389 -20.2722 2.4612 0 7.80266 20.2722zm-5.559 -7.81728l-3.18011 -8.63789c-0.101067,-0.284608 -0.207378,-0.738139 -0.308763,-1.35582l-0.0576845 0c-0.0918502,0.574143 -0.20277,1.02275 -0.323541,1.35582l-3.15596 8.63789 7.02606 0z"/>
  <path class="fil1" d="M48.6706 39.3033c-1.49582,0.791533 -3.36334,1.18738 -5.59762,1.18738 -2.88549,0 -5.19224,-0.926606 -6.92468,-2.78443 -1.73721,-1.85798 -2.60565,-4.29487 -2.60565,-7.31083 0,-3.23796 0.979523,-5.85823 2.92888,-7.85605 1.94983,-2.00275 4.42518,-3.0015 7.42175,-3.0015 1.92059,0 3.51303,0.279841 4.77732,0.834756l0 2.53351c-1.45244,-0.810761 -3.05457,-1.21598 -4.80624,-1.21598 -2.32597,0 -4.21271,0.776754 -5.66023,2.33058 -1.44767,1.55398 -2.17167,3.63364 -2.17167,6.23469 0,2.4709 0.675528,4.43948 2.02674,5.90161 1.35614,1.46706 3.12704,2.20059 5.32747,2.20059 2.03151,0 3.7978,-0.453689 5.28393,-1.35598l0 2.30166z"/>
  <path class="fil1" d="M196.15 40.4422l-2.35966 0 0 -13.5983c0,-1.0763 0.0627696,-2.3889 0.198002,-3.94749l-0.0578434 0c-0.226447,0.916754 -0.429376,1.56845 -0.607673,1.96381l-6.92515 15.582 -1.16259 0 -6.91053 -15.4658c-0.197843,-0.453689 -0.400295,-1.14384 -0.607673,-2.07998l-0.0583201 0c0.0773893,0.810761 0.110919,2.13782 0.110919,3.97165l0 13.5741 -2.2872 0 0 -20.272 3.13657 0 6.22039 14.1341c0.48277,1.08552 0.791056,1.89644 0.9363,2.43181l0.0818388 0c0.405221,-1.10983 0.733212,-1.93982 0.974756,-2.48504l6.35053 -14.0809 2.96733 0 0 20.272z"/>
  <path class="fil1" d="M213.99 40.4422l-2.62981 0 -2.14767 -5.68438 -8.59912 0 -2.02198 5.68438 -2.63934 0 7.77389 -20.272 2.46104 0 7.80298 20.272zm-5.559 -7.81728l-3.18027 -8.63789c-0.100908,-0.284608 -0.207378,-0.738139 -0.308922,-1.35598l-0.0576845 0c-0.0920091,0.574143 -0.202929,1.02291 -0.323541,1.35598l-3.15612 8.63789 7.02654 0z"/>
  <polygon class="fil1" points="235.913,40.4422 213.788,40.4422 213.788,20.1702 216.162,20.1702 216.162,38.2949 223.67,38.2949 223.67,20.1702 226.03,20.1702 226.03,38.2949 233.538,38.2949 233.538,20.1702 235.913,20.1702 "/>
  <path class="fil1" d="M72.5234 39.4336l0 -3.97626c1.47675,0.868604 3.14611,1.30306 5.00393,1.30306 3.40243,0 5.32302,-1.62136 5.76702,-4.86409l-7.8176 0 0 -3.61934 7.8462 0c-0.583678,-3.33457 -2.50427,-5.00425 -5.76638,-5.00425 -1.85782,0 -3.53687,0.395687 -5.03317,1.18738l0 -4.11149c1.57305,-0.540454 3.40688,-0.810761 5.49671,-0.810761 3.21841,0 5.72777,0.926606 7.53728,2.77966 1.80967,1.85305 2.71673,4.43948 2.71673,7.75467 0,3.14134 -0.901975,5.66023 -2.70211,7.57113 -1.80014,1.90629 -4.26118,2.86182 -7.37868,2.86182 -2.29165,0 -4.18363,-0.35723 -5.66992,-1.07153z"/>
  <polygon class="fil1" points="107.166,40.1527 102.587,40.1527 102.587,31.8963 94.1901,31.8963 94.1901,40.1527 89.6207,40.1527 89.6207,19.8805 94.1901,19.8805 94.1901,27.9682 102.587,27.9682 102.587,19.8805 107.166,19.8805 "/>
  <polygon class="fil1" points="121.648,40.1527 109.488,40.1527 109.488,19.8805 121.18,19.8805 121.18,23.5961 114.057,23.5961 114.057,28.1081 120.688,28.1081 120.688,31.8094 114.057,31.8094 114.057,36.4466 121.648,36.4466 "/>
  <path class="fil1" d="M127.728 33.1702l0 6.98252 -4.56947 0 0 -20.2722 7.15605 0c5.1104,0 7.66345,2.15212 7.66345,6.46145 0,2.03644 -0.733848,3.68179 -2.20091,4.94148 -1.46658,1.25444 -3.42086,1.88674 -5.87237,1.88674l-2.17675 0zm0 -9.78618l0 6.32145 1.79553 0c2.43196,0 3.64795,-1.06645 3.64795,-3.19457 0,-2.08475 -1.21598,-3.12688 -3.64795,-3.12688l-1.79553 0z"/>
  <polygon class="fil1" points="151.571,23.9435 144.068,23.9435 144.068,40.4422 139.498,40.4422 139.498,20.1702 151.571,20.1702 "/>
  <path class="fil1" d="M161.754 40.5051c-2.90504,0 -5.26963,-0.945993 -7.09821,-2.83274 -1.82938,-1.89151 -2.74136,-4.35271 -2.74136,-7.38806 0,-3.20411 0.926606,-5.79546 2.78443,-7.77389 1.85782,-1.97859 4.31442,-2.97258 7.37868,-2.97258 2.89487,0 5.23546,0.950602 7.02098,2.84227 1.78552,1.89644 2.67843,4.3961 2.67843,7.49405 0,3.18488 -0.927083,5.75685 -2.77998,7.70652 -1.84829,1.94967 -4.26563,2.92443 -7.24298,2.92443zm0.198002 -17.0346c-1.60229,0 -2.87644,0.598615 -3.81719,1.8049 -0.941226,1.20168 -1.41383,2.78904 -1.41383,4.76779 0,2.0072 0.472599,3.59487 1.41383,4.76747 0.940749,1.16783 2.17628,1.75167 3.70102,1.75167 1.57814,0 2.8232,-0.569376 3.74933,-1.7032 0.922157,-1.13891 1.38522,-2.71212 1.38522,-4.72917 0,-2.10381 -0.448922,-3.73996 -1.34152,-4.90747 -0.897526,-1.16783 -2.12352,-1.75199 -3.67687,-1.75199z"/>
 </g>
</svg>
