<?xml version="1.0" encoding="UTF-8"?>
<!DOCTYPE svg PUBLIC "-//W3C//DTD SVG 1.1//EN" "http://www.w3.org/Graphics/SVG/1.1/DTD/svg11.dtd">
<!-- Creator: CorelDRAW -->
<svg xmlns="http://www.w3.org/2000/svg" xml:space="preserve" width="1050px" height="266px" style="shape-rendering:geometricPrecision; text-rendering:geometricPrecision; image-rendering:optimizeQuality; fill-rule:evenodd; clip-rule:evenodd"
viewBox="0 0 1050 266.249"
 xmlns:xlink="http://www.w3.org/1999/xlink">
 <defs>
  <style type="text/css">
   <![CDATA[
    .fil1 {fill:#3E3F4C;fill-rule:nonzero}
    .fil0 {fill:#E42A25;fill-rule:nonzero}
   ]]>
  </style>
 </defs>
 <g id="Layer_x0020_1">
  <metadata id="CorelCorpID_0Corel-Layer"/>
  <path class="fil0" d="M275.361 252.695c30.4083,-1.67328 57.7949,-14.6887 77.9947,-34.8897 20.201,-20.2022 33.2188,-47.5887 34.8897,-77.9958l-126.428 0 0 -13.3709 126.428 0c-1.67092,-30.4083 -14.6887,-57.7937 -34.8897,-77.997 -20.1998,-20.1998 -47.5863,-33.2141 -77.9947,-34.8885l0 99.6398 -13.3685 0 0 -99.6398c-30.4095,1.67446 -57.7937,14.6887 -77.9958,34.8885 -21.6712,21.6723 -35.0751,51.6119 -35.0751,84.6819 0,33.0688 13.4039,63.0095 35.0751,84.6807 20.2022,20.201 47.5863,33.2152 77.9958,34.8885l0 -99.6635 13.3685 0 0 99.6635 0 0.00236172zm87.4486 -25.4369c-24.0896,24.0896 -57.3757,38.9897 -94.1347,38.9897 -36.7602,0 -70.0439,-14.9001 -94.1323,-38.9897 -24.0907,-24.0907 -38.9932,-57.3721 -38.9932,-94.1335 0,-36.7614 14.9025,-70.0427 38.9932,-94.1335 24.0884,-24.0896 57.3721,-38.9897 94.1323,-38.9897 36.7578,0 70.0427,14.9001 94.1347,38.9897 24.0884,24.0907 38.9897,57.3721 38.9897,94.1335 0,36.7614 -14.9013,70.0427 -38.9897,94.1335z"/>
  <path class="fil1" d="M46.3263 166.878l0 11.8358 -9.81531 0 0 -11.8358 -1.6969 0c-10.0727,0 -18.3848,-3.41269 -24.9563,-10.2877 -6.57149,-6.85253 -9.85782,-15.2921 -9.85782,-25.3224 0,-9.55789 3.28634,-17.6125 9.81531,-24.1628 6.55141,-6.55023 14.9273,-9.81531 25.1075,-9.81531l1.58944 0 0 -11.3185 9.81531 0 0 11.3185 1.50324 0c10.3101,0 18.7296,3.22021 25.1937,9.66534 6.48529,6.4227 9.72911,14.5411 9.72911,24.3127 0,9.90152 -3.28515,18.3211 -9.85901,25.2374 -6.55141,6.9163 -14.8611,10.3727 -24.9339,10.3727l-1.63313 0 -0.00118086 0zm0 -60.7175l0 51.417 1.63195 0c7.17373,0 12.908,-2.38416 17.2465,-7.15129 4.31723,-4.76713 6.46403,-11.1036 6.46403,-19.0284 0,-7.55869 -2.1468,-13.6401 -6.46403,-18.2774 -4.33848,-4.6396 -10.1164,-6.95881 -17.3752,-6.95881l-1.50324 0 0 -0.00118086zm-9.81531 51.417l0 -51.417 -1.58944 0c-7.13122,0 -12.8879,2.34047 -17.2701,7.04383 -4.38217,4.70337 -6.57149,10.76 -6.57149,18.1912 0,7.96963 2.16924,14.3274 6.48765,19.0721 4.31605,4.72344 10.0727,7.10878 17.2465,7.10878l1.6969 0 0 0.00118086z"/>
  <path class="fil1" d="M155.238 178.711l-11.7059 0 -9.55789 -25.3011 -38.2741 0 -9.00052 25.3011 -11.7472 0 34.6004 -90.2284 10.9537 0 34.7279 90.2284 0.00354258 0zm-24.7426 -34.7929l-14.1538 -38.4465c-0.451089,-1.26588 -0.923433,-3.28515 -1.37452,-6.03538l-0.257428 0c-0.408578,2.55656 -0.902178,4.55222 -1.43947,6.03538l-14.0452 38.4465 31.2716 0 -0.00118086 0z"/>
  <path class="fil1" d="M216.621 174.932c-6.65769,3.52251 -14.9698,5.28553 -24.9138,5.28553 -12.843,0 -23.1106,-4.12475 -30.8205,-12.3931 -7.73109,-8.27075 -11.5972,-19.117 -11.5972,-32.5386 0,-14.4112 4.35974,-26.0746 13.0355,-34.9653 8.67814,-8.91432 19.6956,-13.3579 33.0322,-13.3579 8.54825,0 15.6358,1.24581 21.2638,3.71381l0 11.2772c-6.46403,-3.60871 -13.5952,-5.41188 -21.3913,-5.41188 -10.3514,0 -18.7497,3.45756 -25.1937,10.3739 -6.44396,6.9163 -9.66534,16.1731 -9.66534,27.749 0,10.9985 3.00647,19.7593 9.01941,26.2671 6.03538,6.52898 13.9188,9.79524 23.7129,9.79524 9.04185,0 16.9028,-2.02045 23.518,-6.03538l0 10.244 0 -0.00354258z"/>
  <path class="fil1" d="M873.024 180.002l-10.5038 0 0 -60.5238c0,-4.79075 0.279864,-10.6325 0.880922,-17.5688l-0.256247 0c-1.00727,4.07869 -1.91063,6.98007 -2.70417,8.74073l-30.824 69.3531 -5.17335 0 -30.7579 -68.8359c-0.880922,-2.01927 -1.7831,-5.09069 -2.70417,-9.25677l-0.258608 0c0.344811,3.60871 0.4936,9.51419 0.4936,17.6775l0 60.4152 -10.1802 0 0 -90.2272 13.9601 0 27.6865 62.908c2.14917,4.8309 3.52133,8.44197 4.16608,10.8249l0.364886 0c1.80436,-4.94072 3.2639,-8.63327 4.33848,-11.0599l28.2663 -62.6706 13.2067 0 0 90.226 -0.00118086 -0.00236172z"/>
  <path class="fil1" d="M952.427 180.002l-11.7059 0 -9.55789 -25.2999 -38.2729 0 -8.99934 25.2999 -11.7472 0 34.5992 -90.2272 10.9537 0 34.7303 90.2272zm-24.7414 -34.7941l-14.155 -38.4453c-0.449908,-1.26706 -0.923433,-3.28634 -1.3757,-6.03538l-0.257428 0c-0.410939,2.55538 -0.903358,4.55222 -1.43947,6.03538l-14.0475 38.4453 31.2739 0 0.00118086 0z"/>
  <polygon class="fil1" points="1050,180.002 951.528,180.002 951.528,89.7737 962.094,89.7737 962.094,170.443 995.51,170.443 995.51,89.7737 1006.02,89.7737 1006.02,170.443 1039.43,170.443 1039.43,89.7737 1050,89.7737 "/>
  <path class="fil1" d="M322.786 175.511l0 -17.6964c6.57267,3.86614 14.0015,5.79921 22.2699,5.79921 15.1445,0 23.6916,-7.21506 25.6684,-21.6475l-34.7952 0 0 -16.1105 34.9216 0c-2.59907,-14.8411 -11.1461,-22.2722 -25.666,-22.2722 -8.26839,0 -15.7421,1.76066 -22.4021,5.28553l0 -18.2986c7.00132,-2.40541 15.1623,-3.60871 24.4651,-3.60871 14.325,0 25.4924,4.12475 33.5471,12.3707 8.05465,8.24831 12.092,19.7593 12.092,34.5142 0,13.9826 -4.01375,25.1937 -12.0259,33.697 -8.01332,8.48566 -18.967,12.7379 -32.8409,12.7379 -10.2015,0 -18.621,-1.59062 -25.2362,-4.76832l0.00236172 -0.00236172z"/>
  <polygon class="fil1" points="476.974,178.711 456.594,178.711 456.594,141.964 419.221,141.964 419.221,178.711 398.883,178.711 398.883,88.4854 419.221,88.4854 419.221,124.482 456.594,124.482 456.594,88.4854 476.974,88.4854 "/>
  <polygon class="fil1" points="541.43,178.711 487.309,178.711 487.309,88.4854 539.347,88.4854 539.347,105.022 507.645,105.022 507.645,125.105 537.158,125.105 537.158,141.578 507.645,141.578 507.645,162.217 541.43,162.217 "/>
  <path class="fil1" d="M568.491 147.635l0 31.0767 -20.3391 0 0 -90.2284 31.8502 0c22.7457,0 34.1092,9.57914 34.1092,28.7587 0,9.06429 -3.26508,16.3868 -9.79524,21.9935 -6.5278,5.58311 -15.2248,8.3971 -26.136,8.3971l-9.68778 0 -0.00118086 0.00236172zm0 -43.556l0 28.1364 7.99088 0c10.8238,0 16.2357,-4.74706 16.2357,-14.2187 0,-9.27802 -5.41188,-13.9164 -16.2357,-13.9164l-7.99088 0 0 -0.00118086z"/>
  <polygon class="fil1" points="674.611,106.569 641.217,106.569 641.217,180.002 620.876,180.002 620.876,89.7737 674.611,89.7737 "/>
  <path class="fil1" d="M719.935 180.281c-12.9304,0 -23.4554,-4.21095 -31.5939,-12.608 -8.14203,-8.41836 -12.2018,-19.3744 -12.2018,-32.8834 0,-14.2613 4.12593,-25.7935 12.3943,-34.6004 8.26721,-8.80686 19.202,-13.2304 32.8409,-13.2304 12.8844,0 23.3019,4.23102 31.2479,12.6506 7.94719,8.44079 11.9208,19.5669 11.9208,33.3534 0,14.1762 -4.12593,25.6223 -12.3731,34.3016 -8.22588,8.67696 -18.9847,13.0154 -32.2375,13.0154l0.00236172 0.00118086zm0.880922 -75.8172c-7.13122,0 -12.8017,2.66402 -16.989,8.03221 -4.18851,5.3493 -6.29281,12.4144 -6.29281,21.2201 0,8.93439 2.10429,16.0007 6.29281,21.2201 4.18733,5.19815 9.68542,7.79604 16.473,7.79604 7.02376,0 12.5644,-2.53413 16.6879,-7.58113 4.10467,-5.06825 6.16409,-12.0696 6.16409,-21.0477 0,-9.36304 -1.99684,-16.6466 -5.97043,-21.8424 -3.99603,-5.19815 -9.45279,-7.79722 -16.3655,-7.79722z"/>
 </g>
</svg>
