<?xml version="1.0" encoding="UTF-8"?>
<!DOCTYPE svg PUBLIC "-//W3C//DTD SVG 1.1//EN" "http://www.w3.org/Graphics/SVG/1.1/DTD/svg11.dtd">
<!-- Creator: CorelDRAW -->
<svg xmlns="http://www.w3.org/2000/svg" xml:space="preserve" width="1000px" height="253px" style="shape-rendering:geometricPrecision; text-rendering:geometricPrecision; image-rendering:optimizeQuality; fill-rule:evenodd; clip-rule:evenodd"
viewBox="0 0 999.762 253.445"
 xmlns:xlink="http://www.w3.org/1999/xlink">
 <defs>
  <style type="text/css">
   <![CDATA[
    .fil0 {fill:#FEFEFE}
   ]]>
  </style>
 </defs>
 <g id="Layer_x0020_1">
  <metadata id="CorelCorpID_0Corel-Layer"/>
  <path class="fil0" d="M69.5963 101.898c-6.17572,-6.17572 -14.2519,-9.26381 -23.9906,-9.26381l-1.42525 0 0 -10.6891 -9.26381 0.000457201 0 10.6886 -1.66238 0c-9.73853,0 -17.5771,3.08809 -23.9906,9.26381 -6.17572,6.41331 -9.26381,14.0143 -9.26381,23.0405 0,9.50094 3.08809,17.5771 9.50094,23.9906 6.17572,6.6509 14.2519,9.73853 23.7528,9.73853l1.66284 0 0 11.1638 9.26381 0 0 -11.1638 1.66284 0c9.50094,0 17.5771,-3.32522 23.7528,-9.97628 6.17572,-6.6509 9.50094,-14.4895 9.50094,-23.9906 -0.237135,-9.02621 -3.32522,-16.8648 -9.50094,-22.8029l0.000304801 0.0001524zm-34.9167 48.2185l-1.42525 0c-6.88865,0 -12.3514,-2.37531 -16.3896,-6.6509 -4.03815,-4.51288 -6.17572,-10.6891 -6.17572,-18.0524 0,-7.12578 2.13757,-12.8266 6.17572,-17.3395 4.27574,-4.51288 9.73853,-6.6509 16.3896,-6.6509l1.42525 0 0 48.6939 0 -0.0001524zm27.3158 -6.88865c-4.03815,4.51288 -9.50094,6.88865 -16.3896,6.88865l-1.66284 0 0 -49.1686 1.42525 0c6.88865,0 12.3514,2.13757 16.6272,6.6509 4.03815,4.51288 6.17572,10.2137 6.17572,17.3395 0,7.60097 -1.89997,13.7767 -6.17572,18.2896z"/>
  <path class="fil0" d="M154.632 95.4866c-8.31329,8.55103 -12.3514,19.4777 -12.3514,33.2542 0,12.8266 3.56281,23.0405 10.9262,30.879 7.36337,7.83856 17.1019,11.8767 29.4538,11.8767 9.50094,0 17.3395,-1.66284 23.7528,-4.98806l0 -9.73899c-6.41331,3.80041 -13.7767,5.70053 -22.3276,5.70053 -9.26381,0 -16.8648,-3.08809 -22.5653,-9.26381 -5.70053,-6.17572 -8.55103,-14.4895 -8.55103,-24.9405 0,-10.9262 3.08809,-19.7148 9.26381,-26.3657 6.17572,-6.6509 14.0143,-9.97628 23.9906,-9.97628 7.36337,0 14.2519,1.66284 20.4276,5.22565l0 -10.6891c-5.4634,-2.37531 -12.1138,-3.56281 -20.19,-3.56281 -13.0648,0 -23.7537,4.03815 -31.8296,12.589l0.0001524 0z"/>
  <path class="fil0" d="M989.548 85.5108l0 76.7218 -31.8291 0 0 -76.7218 -9.97628 0 0 76.7218 -31.8291 0 0 -76.7218 -9.97628 0 0 83.6105 -32.3038 -83.6105 -10.4515 0 -32.0667 83.6105 0 -83.6105 -12.589 0 -26.8409 59.6202c-0.950064,2.37531 -2.37531,5.93813 -4.03815,10.4515l-0.237135 -0.000457201c-0.712319,-2.37531 -1.89997,-5.70053 -4.03815,-10.2137l-26.6033 -59.8572 -13.3013 0 0 85.9859 9.73853 0 0 -57.7193c0,-7.83856 -0.237592,-13.3013 -0.475184,-16.8648l0.237592 0c0.950064,4.03815 1.66284,6.88865 2.6129,8.78862l29.2162 65.558 4.98806 0 29.4538 -66.0335c0.712319,-1.66284 1.66284,-4.51288 2.6129,-8.31329l0.237592 0c-0.475184,6.6509 -0.950064,12.1138 -0.950064,16.6272l0 57.7193 9.26335 0 0.950064 0 10.4515 0 8.55103 -23.9906 36.3424 0 9.02621 23.9906 10.2134 0 0.950521 0 92.8738 0 0 -85.748 -10.2137 0 -0.0001524 -0.000457201zm-136.104 52.7316l13.3013 -36.5796c0.475184,-1.42525 0.950064,-3.32522 1.42525,-5.70053l0.237592 0c0.475184,2.6129 0.950064,4.51288 1.42525,5.70053l13.5391 36.5796 -29.9285 0z"/>
  <path class="fil0" d="M379.81 170.071l19.4777 0 0 -34.9166 35.6291 0 0 34.9166 19.4777 0 0 -85.748 -19.7148 0 0 34.2043 -35.6295 0 0 -34.2043 -19.4777 0 0 16.1518c-5.22565,-24.4657 -17.3395,-46.081 -34.4419,-63.1827 -22.5653,-23.0405 -54.3944,-37.2924 -89.3109,-37.2924 -35.1543,0 -66.7455,14.2519 -89.5484,37.0548 -21.8528,21.8528 -35.6295,51.5439 -37.0548,84.5605l-14.4895 -37.5295 -10.451 0 -33.0166 85.9859 11.1638 0 8.55103 -23.9906 36.3418 0 9.02621 23.9906 0 0c6.41331,17.5771 16.6272,33.2542 29.4538,46.3181 23.0405,23.0405 54.6319,37.0548 89.5484,37.0548 34.9166,0 66.7455,-14.2519 89.5484,-37.0548 17.1019,-17.1019 29.2162,-38.7171 34.4419,-63.1827l0 16.8648 0.475184 0 0 -0.000609601zm-285.273 -33.0166l13.3013 -36.5796c0.475184,-1.42525 0.950064,-3.32522 1.42525,-5.70053l0.237592 0c0.475184,2.6129 0.950064,4.51288 1.42525,5.70053l13.5391 36.5796 -29.9285 0zm241.805 70.3088c-19.2399,19.2399 -45.3682,31.5914 -74.3468,33.2542l0 -95.0125 -12.589 0 0 94.7743c-28.9786,-1.66284 -55.1069,-14.0143 -74.3468,-33.2542 -20.6652,-20.6652 -33.492,-49.1686 -33.492,-80.5225 0,-31.5914 12.8266,-60.0951 33.492,-80.5225 19.2399,-19.2399 45.3682,-31.5914 74.3468,-33.2542l0 94.7743 12.8266 0 0 -94.7743c28.9786,1.66284 55.1069,14.0143 74.3468,33.2542 14.4895,14.4895 25.1781,32.779 30.1663,53.4444 -1.18766,-1.66284 -2.6129,-3.32522 -4.03815,-4.98806 -7.60097,-7.83856 -18.29,-11.8767 -31.8291,-11.8767 -8.78862,0 -16.6272,1.18766 -23.2781,3.32522l0 17.3395c6.41331,-3.32522 13.5391,-4.98806 21.3777,-4.98806 13.7767,0 21.8528,7.12578 24.4657,21.1401l-33.2537 0.000457201 0 0.475184 -70.5464 0 0 13.0638 70.5464 0 0 2.13757 33.0166 0.000457201c-1.89997,13.7767 -9.97628,20.6652 -24.4657,20.6652 -7.83856,0 -14.9643,-1.89997 -21.1401,-5.4634l0 16.8648c6.41331,3.08809 14.2519,4.51288 23.9906,4.51288 13.3013,0 23.7528,-4.03815 31.3538,-12.1138 1.42525,-1.42525 2.6129,-3.08809 3.80041,-4.75047 -5.70053,20.1895 -16.1518,38.242 -30.4039,52.494l0.0001524 0.000457201z"/>
  <polygon class="fil0" points="515.44,154.394 483.371,154.394 483.371,134.676 511.403,134.676 511.403,119.003 483.371,119.003 483.371,99.9987 513.54,99.9987 513.54,84.3213 463.895,84.3213 463.895,170.071 515.44,170.071 "/>
  <path class="fil0" d="M552.258 84.3213l-30.4039 0 0 85.9859 19.4771 0 0 -29.6914 9.26381 0c10.4515,0 18.7647,-2.6129 24.9405,-8.07615 6.17572,-5.22565 9.26381,-12.3514 9.26381,-20.9023 -0.237592,-18.2896 -10.9262,-27.3158 -32.5414,-27.3158l0.0001524 -0.000304801zm-3.56281 41.5678l-7.60097 0 0 -26.8409 7.60097 0c10.2137,0 15.4395,4.51288 15.4395,13.3013 0.237135,9.02667 -4.98852,13.5395 -15.4395,13.5395z"/>
  <polygon class="fil0" points="590.976,171.257 610.452,171.257 610.452,101.422 642.282,101.422 642.282,85.5108 590.976,85.5108 "/>
  <path class="fil0" d="M716.391 94.7729c-7.60097,-8.07615 -17.5771,-12.1138 -29.6914,-12.1138 -13.0642,0 -23.2781,4.27574 -31.3538,12.589 -7.83856,8.31329 -11.8767,19.4777 -11.8767,33.0166 0,12.8266 3.80041,23.2781 11.639,31.3538 7.83856,8.07615 17.8148,12.1138 30.1663,12.1138 12.589,0 22.8029,-4.03815 30.6415,-12.3514 7.83856,-8.31329 11.8767,-19.2399 11.8767,-32.5414 0,-13.302 -3.80041,-23.991 -11.4014,-32.0667l-0.0001524 0.0001524zm-14.7266 52.969c-4.03815,4.75047 -9.26381,7.12578 -15.9143,7.12578 -6.41331,0 -11.639,-2.37531 -15.6771,-7.36337 -4.03815,-4.98806 -5.93813,-11.639 -5.93813,-20.19 0,-8.31329 1.89997,-15.2019 5.93813,-20.19 4.03815,-5.22565 9.50094,-7.60097 16.1518,-7.60097 6.6509,0 11.8767,2.37531 15.6771,7.36337 3.80041,4.98806 5.70053,11.8767 5.70053,20.9023 -0.237592,8.31374 -2.13757,15.2019 -5.93813,19.9529z"/>
 </g>
</svg>
