<?xml version="1.0" encoding="UTF-8"?>
<!DOCTYPE svg PUBLIC "-//W3C//DTD SVG 1.1//EN" "http://www.w3.org/Graphics/SVG/1.1/DTD/svg11.dtd">
<!-- Creator: CorelDRAW 2018 (64-Bit) -->
<svg xmlns="http://www.w3.org/2000/svg" xml:space="preserve" width="1680px" height="372px" version="1.1" style="shape-rendering:geometricPrecision; text-rendering:geometricPrecision; image-rendering:optimizeQuality; fill-rule:evenodd; clip-rule:evenodd"
viewBox="0 0 1656.64 366.5"
 xmlns:xlink="http://www.w3.org/1999/xlink">
 <defs>
  <style type="text/css">
   <![CDATA[
    .fil1 {fill:#FEFEFE;fill-rule:nonzero}
    .fil0 {fill:#E42A25;fill-rule:nonzero}
   ]]>
  </style>
 </defs>
 <g id="Слой_x0020_1">
  <metadata id="CorelCorpID_0Corel-Layer"/>
  <g id="_2357627566192">
   <path class="fil0" d="M372.89 347.84c41.86,-2.3 79.56,-20.22 107.37,-48.03 27.8,-27.8 45.72,-65.5 48.02,-107.36l-174.03 0 0 -18.4 174.03 0c-2.3,-41.86 -20.22,-79.56 -48.02,-107.37 -27.81,-27.8 -65.51,-45.72 -107.37,-48.02l0 137.16 -18.4 0 0 -137.16c-41.86,2.3 -79.56,20.22 -107.36,48.02 -29.83,29.84 -48.28,71.05 -48.28,116.57 0,45.52 18.45,86.73 48.28,116.56 27.8,27.81 65.5,45.73 107.36,48.03l0 -137.19 18.4 0 0 137.19zm120.38 -35.01c-33.16,33.16 -78.98,53.67 -129.58,53.67 -50.6,0 -96.42,-20.51 -129.58,-53.67 -33.16,-33.16 -53.67,-78.98 -53.67,-129.58 0,-50.6 20.51,-96.42 53.67,-129.58 33.16,-33.16 78.98,-53.67 129.58,-53.67 50.6,0 96.42,20.51 129.58,53.67 33.16,33.16 53.67,78.98 53.67,129.58 0,50.6 -20.51,96.42 -53.67,129.58z"/>
   <path class="fil1" d="M0 247.78l0 -126.31 85.23 0 0 14.91 -68.5 0 0 39.11 59.26 0 0 14.91 -59.26 0 0 57.38 -16.73 0zm79.88 0l48.53 -126.31 18 0 51.7 126.31 -19.06 0 -14.73 -38.26 -52.82 0 -13.85 38.26 -17.77 0zm36.44 -51.88l42.85 0 -13.2 -34.96c-4,-10.62 -7,-19.36 -8.94,-26.21 -1.62,8.12 -3.89,16.15 -6.83,24.15l-13.88 37.02zm86.03 11.3l15.77 -1.39c0.73,6.33 2.47,11.5 5.2,15.56 2.74,4.06 6.97,7.33 12.71,9.83 5.73,2.5 12.2,3.73 19.38,3.73 6.38,0 12,-0.94 16.88,-2.82 4.88,-1.91 8.53,-4.5 10.91,-7.8 2.38,-3.32 3.59,-6.91 3.59,-10.82 0,-3.97 -1.15,-7.41 -3.47,-10.38 -2.3,-2.97 -6.09,-5.44 -11.35,-7.44 -3.42,-1.32 -10.88,-3.38 -22.5,-6.18 -11.59,-2.79 -19.74,-5.41 -24.38,-7.88 -6.03,-3.15 -10.53,-7.09 -13.5,-11.76 -2.94,-4.68 -4.41,-9.91 -4.41,-15.74 0,-6.35 1.79,-12.32 5.41,-17.85 3.62,-5.56 8.91,-9.76 15.85,-12.64 6.97,-2.86 14.68,-4.3 23.18,-4.3 9.38,0 17.61,1.5 24.79,4.53 7.14,3 12.64,7.44 16.5,13.29 3.82,5.86 5.91,12.5 6.2,19.91l-16.03 1.21c-0.88,-7.97 -3.79,-14.03 -8.76,-18.09 -4.97,-4.09 -12.29,-6.11 -22,-6.11 -10.12,0 -17.47,1.85 -22.12,5.55 -4.61,3.71 -6.94,8.18 -6.94,13.39 0,4.55 1.65,8.29 4.92,11.2 3.23,2.94 11.61,5.94 25.2,9 13.59,3.09 22.91,5.76 27.97,8.06 7.35,3.41 12.79,7.7 16.29,12.88 3.5,5.21 5.24,11.2 5.24,17.97 0,6.73 -1.92,13.06 -5.77,19 -3.85,5.94 -9.38,10.56 -16.58,13.88 -7.21,3.29 -15.33,4.94 -24.33,4.94 -11.44,0 -21.02,-1.65 -28.73,-5 -7.74,-3.32 -13.79,-8.32 -18.2,-15.03 -4.39,-6.67 -6.71,-14.26 -6.92,-22.7z"/>
   <path class="fil1" d="M440 247.78l0 -126.31 93.64 0 0 21.38 -68.14 0 0 28 63.41 0 0 21.26 -63.41 0 0 34.38 70.55 0 0 21.29 -96.05 0zm114.5 0l0 -126.31 24.82 0 51.71 84.34 0 -84.34 23.7 0 0 126.31 -25.61 0 -50.91 -82.37 0 82.37 -23.71 0zm123.77 0l0 -126.31 93.64 0 0 21.38 -68.14 0 0 28 63.4 0 0 21.26 -63.4 0 0 34.38 70.55 0 0 21.29 -96.05 0zm114.32 0l0 -126.31 53.7 0c13.5,0 23.29,1.15 29.41,3.41 6.12,2.26 11.03,6.29 14.71,12.09 3.67,5.82 5.5,12.44 5.5,19.91 0,9.47 -2.8,17.32 -8.36,23.5 -5.55,6.14 -13.91,10.05 -24.99,11.64 5.53,3.24 10.08,6.77 13.67,10.62 3.59,3.85 8.41,10.67 14.5,20.5l15.44 24.64 -30.5 0 -18.44 -27.5c-6.56,-9.82 -11.03,-15.99 -13.44,-18.55 -2.41,-2.56 -4.97,-4.3 -7.67,-5.27 -2.71,-0.94 -6.97,-1.41 -12.86,-1.41l-5.14 0 0 52.73 -25.53 0zm25.53 -72.9l18.85 0c12.23,0 19.88,-0.5 22.94,-1.53 3.03,-1.03 5.41,-2.83 7.15,-5.36 1.7,-2.53 2.58,-5.67 2.58,-9.47 0,-4.26 -1.14,-7.67 -3.41,-10.29 -2.26,-2.62 -5.47,-4.26 -9.61,-4.97 -2.06,-0.26 -8.27,-0.41 -18.62,-0.41l-19.88 0 0 32.03zm157.17 26.46l0 -21.29 54.97 0 0 50.32c-5.35,5.18 -13.09,9.74 -23.24,13.68 -10.14,3.91 -20.41,5.88 -30.79,5.88 -13.2,0 -24.73,-2.77 -34.55,-8.29 -9.83,-5.56 -17.21,-13.47 -22.15,-23.8 -4.94,-10.32 -7.41,-21.52 -7.41,-33.64 0,-13.15 2.76,-24.85 8.26,-35.09 5.53,-10.2 13.59,-18.05 24.24,-23.5 8.09,-4.2 18.17,-6.29 30.23,-6.29 15.68,0 27.94,3.3 36.73,9.85 8.83,6.59 14.5,15.68 17.03,27.3l-25.32 4.73c-1.79,-6.21 -5.15,-11.12 -10.06,-14.7 -4.91,-3.59 -11.03,-5.39 -18.38,-5.39 -11.15,0 -20,3.53 -26.59,10.59 -6.58,7.09 -9.85,17.56 -9.85,31.47 0,14.97 3.33,26.23 10,33.73 6.65,7.5 15.38,11.24 26.18,11.24 5.35,0 10.7,-1.06 16.08,-3.15 5.36,-2.09 9.97,-4.65 13.83,-7.62l0 -16.03 -29.21 0zm69.89 -15.93c0,-12.89 1.91,-23.68 5.76,-32.41 2.88,-6.42 6.8,-12.21 11.77,-17.33 4.97,-5.08 10.41,-8.88 16.32,-11.35 7.88,-3.35 16.94,-5 27.23,-5 18.62,0 33.5,5.77 44.67,17.32 11.18,11.53 16.77,27.59 16.77,48.15 0,20.41 -5.56,36.35 -16.65,47.88 -11.09,11.5 -25.91,17.26 -44.44,17.26 -18.79,0 -33.73,-5.74 -44.82,-17.18 -11.08,-11.47 -16.61,-27.26 -16.61,-47.34zm26.26 -0.86c0,14.29 3.32,25.15 9.91,32.53 6.62,7.38 15,11.06 25.18,11.06 10.14,0 18.5,-3.65 25.02,-11 6.5,-7.32 9.77,-18.3 9.77,-32.94 0,-14.47 -3.18,-25.26 -9.5,-32.41 -6.35,-7.12 -14.79,-10.68 -25.29,-10.68 -10.53,0 -19,3.62 -25.44,10.83 -6.41,7.2 -9.65,18.05 -9.65,32.61zm112.97 63.23l0 -126.31 25.18 0 29.88 89.43c2.76,8.33 4.79,14.56 6.02,18.71 1.45,-4.59 3.68,-11.35 6.74,-20.27l30.23 -87.87 22.5 0 0 126.31 -16.12 0 0 -105.73 -36.7 105.73 -15.09 0 -36.52 -107.52 0 107.52 -16.12 0zm130.21 0l48.52 -126.31 18 0 51.7 126.31 -19.06 0 -14.73 -38.26 -52.82 0 -13.85 38.26 -17.76 0zm36.43 -51.88l42.85 0 -13.2 -34.96c-4,-10.62 -7,-19.36 -8.94,-26.21 -1.62,8.12 -3.88,16.15 -6.82,24.15l-13.89 37.02zm86.04 11.3l15.76 -1.39c0.73,6.33 2.47,11.5 5.2,15.56 2.74,4.06 6.97,7.33 12.71,9.83 5.73,2.5 12.2,3.73 19.38,3.73 6.38,0 12,-0.94 16.88,-2.82 4.88,-1.91 8.53,-4.5 10.91,-7.8 2.38,-3.32 3.59,-6.91 3.59,-10.82 0,-3.97 -1.15,-7.41 -3.47,-10.38 -2.29,-2.97 -6.09,-5.44 -11.35,-7.44 -3.41,-1.32 -10.88,-3.38 -22.5,-6.18 -11.59,-2.79 -19.73,-5.41 -24.38,-7.88 -6.03,-3.15 -10.53,-7.09 -13.5,-11.76 -2.94,-4.68 -4.41,-9.91 -4.41,-15.74 0,-6.35 1.79,-12.32 5.41,-17.85 3.62,-5.56 8.91,-9.76 15.85,-12.64 6.97,-2.86 14.68,-4.3 23.18,-4.3 9.38,0 17.61,1.5 24.79,4.53 7.15,3 12.65,7.44 16.5,13.29 3.82,5.86 5.91,12.5 6.2,19.91l-16.02 1.21c-0.89,-7.97 -3.8,-14.03 -8.77,-18.09 -4.97,-4.09 -12.29,-6.11 -22,-6.11 -10.11,0 -17.47,1.85 -22.11,5.55 -4.62,3.71 -6.94,8.18 -6.94,13.39 0,4.55 1.64,8.29 4.91,11.2 3.23,2.94 11.61,5.94 25.2,9 13.59,3.09 22.91,5.76 27.97,8.06 7.35,3.41 12.79,7.7 16.29,12.88 3.5,5.21 5.24,11.2 5.24,17.97 0,6.73 -1.91,13.06 -5.77,19 -3.85,5.94 -9.38,10.56 -16.58,13.88 -7.21,3.29 -15.33,4.94 -24.33,4.94 -11.44,0 -21.02,-1.65 -28.73,-5 -7.73,-3.32 -13.79,-8.32 -18.2,-15.03 -4.38,-6.67 -6.71,-14.26 -6.91,-22.7zm120.44 40.58l0 -126.31 16.73 0 0 51.88 65.64 0 0 -51.88 16.74 0 0 126.31 -16.74 0 0 -59.52 -65.64 0 0 59.52 -16.73 0z"/>
  </g>
 </g>
</svg>
